<svg width="120" height="120" viewBox="0 0 120 120" fill="none" xmlns="http://www.w3.org/2000/svg">
  <g>
    <path d="M60 12 Q78 35 60 55 Q42 35 60 12" fill="#9775FA"/>
    <path d="M60 12 Q78 35 60 55 Q42 35 60 12" fill="#9775FA" transform="rotate(60 60 60)"/>
    <path d="M60 12 Q78 35 60 55 Q42 35 60 12" fill="#9775FA" transform="rotate(120 60 60)"/>
    <path d="M60 12 Q78 35 60 55 Q42 35 60 12" fill="#9775FA" transform="rotate(180 60 60)"/>
    <path d="M60 12 Q78 35 60 55 Q42 35 60 12" fill="#9775FA" transform="rotate(240 60 60)"/>
    <path d="M60 12 Q78 35 60 55 Q42 35 60 12" fill="#9775FA" transform="rotate(300 60 60)"/>
    
    <circle cx="60" cy="60" r="12" fill="#FFD43B"/>
    <circle cx="60" cy="60" r="8" fill="#FFFFFF" opacity="0.4"/>
  </g>
</svg>