<svg width="120" height="120" viewBox="0 0 120 120" fill="none" xmlns="http://www.w3.org/2000/svg">
  <defs>
    <radialGradient id="g2" cx="0" cy="0" r="1" gradientUnits="userSpaceOnUse" gradientTransform="translate(60 60) rotate(90) scale(50)">
      <stop stop-color="#FFFFFF" stop-opacity="0.75"/>
      <stop offset="1" stop-color="#FFFFFF" stop-opacity="0"/>
    </radialGradient>
  </defs>
  <g>
    <path d="M60 12C52 20 46 34 46 46C46 58 52 66 60 66C68 66 74 58 74 46C74 34 68 20 60 12Z" fill="#FF8C42"/>
    <path d="M96 34C86 36 76 44 72 54C68 64 70 74 78 78C86 82 96 78 102 68C108 58 106 44 96 34Z" fill="#FF8C42"/>
    <path d="M96 86C86 80 72 78 62 82C52 86 46 96 50 104C54 112 66 114 76 108C86 102 96 96 96 86Z" fill="#FF8C42"/>
    <path d="M24 86C24 96 34 102 44 108C54 114 66 112 70 104C74 96 68 86 58 82C48 78 34 80 24 86Z" fill="#FF8C42"/>
    <path d="M24 34C14 44 12 58 18 68C24 78 34 82 42 78C50 74 52 64 48 54C44 44 34 36 24 34Z" fill="#FF8C42"/>
    <circle cx="60" cy="60" r="18" fill="#FFE066"/>
    <circle cx="60" cy="60" r="22" fill="url(#g2)"/>
  </g>
</svg>
