<svg width="120" height="120" viewBox="0 0 120 120" fill="none" xmlns="http://www.w3.org/2000/svg">
  <g>
    <ellipse cx="60" cy="24" rx="7" ry="22" fill="#FFF3BF"/>
    <ellipse cx="60" cy="24" rx="7" ry="22" fill="#FFF3BF" transform="rotate(30 60 60)"/>
    <ellipse cx="60" cy="24" rx="7" ry="22" fill="#FFF3BF" transform="rotate(60 60 60)"/>
    <ellipse cx="60" cy="24" rx="7" ry="22" fill="#FFF3BF" transform="rotate(90 60 60)"/>
    <ellipse cx="60" cy="24" rx="7" ry="22" fill="#FFF3BF" transform="rotate(120 60 60)"/>
    <ellipse cx="60" cy="24" rx="7" ry="22" fill="#FFF3BF" transform="rotate(150 60 60)"/>
    <ellipse cx="60" cy="24" rx="7" ry="22" fill="#FFF3BF" transform="rotate(180 60 60)"/>
    <ellipse cx="60" cy="24" rx="7" ry="22" fill="#FFF3BF" transform="rotate(210 60 60)"/>
    <ellipse cx="60" cy="24" rx="7" ry="22" fill="#FFF3BF" transform="rotate(240 60 60)"/>
    <ellipse cx="60" cy="24" rx="7" ry="22" fill="#FFF3BF" transform="rotate(270 60 60)"/>
    <ellipse cx="60" cy="24" rx="7" ry="22" fill="#FFF3BF" transform="rotate(300 60 60)"/>
    <ellipse cx="60" cy="24" rx="7" ry="22" fill="#FFF3BF" transform="rotate(330 60 60)"/>

    <circle cx="60" cy="60" r="18" fill="#F59F00"/>
  </g>
</svg>