<svg width="120" height="120" viewBox="0 0 120 120" fill="none" xmlns="http://www.w3.org/2000/svg">
  <defs>
    <radialGradient id="g1" cx="60" cy="60" r="20" gradientUnits="userSpaceOnUse">
      <stop stop-color="#FFFFFF" stop-opacity="0.7"/>
      <stop offset="1" stop-color="#FFFFFF" stop-opacity="0"/>
    </radialGradient>
  </defs>
  <g>
    <!-- 8 Лепестков вращаются вокруг центра (60, 60) -->
    <ellipse cx="60" cy="25" rx="13" ry="24" fill="#F25C8E"/>
    <ellipse cx="60" cy="25" rx="13" ry="24" fill="#F25C8E" transform="rotate(45 60 60)"/>
    <ellipse cx="60" cy="25" rx="13" ry="24" fill="#F25C8E" transform="rotate(90 60 60)"/>
    <ellipse cx="60" cy="25" rx="13" ry="24" fill="#F25C8E" transform="rotate(135 60 60)"/>
    <ellipse cx="60" cy="25" rx="13" ry="24" fill="#F25C8E" transform="rotate(180 60 60)"/>
    <ellipse cx="60" cy="25" rx="13" ry="24" fill="#F25C8E" transform="rotate(225 60 60)"/>
    <ellipse cx="60" cy="25" rx="13" ry="24" fill="#F25C8E" transform="rotate(270 60 60)"/>
    <ellipse cx="60" cy="25" rx="13" ry="24" fill="#F25C8E" transform="rotate(315 60 60)"/>
    <!-- Сердцевина -->
    <circle cx="60" cy="60" r="18" fill="#FFE066"/>
    <circle cx="60" cy="60" r="18" fill="url(#g1)"/>
  </g>
</svg>